<svg width="28" height="32" viewBox="0 0 28 32" fill="none" xmlns="http://www.w3.org/2000/svg">
    <path
        d="M20.8994 7.84064L3.40625 7.87501V28.875C3.40625 30.2556 4.52562 31.375 5.90625 31.375H18.4062C19.7869 31.375 20.9062 30.2556 20.9062 28.875V7.85314L20.8994 7.84064Z"
        fill="#95E7EE" />
    <path d="M20.9062 28.875V7.85314L20.8994 7.84064L3.40625 7.87501V28.875H20.9062Z"
        fill="#FEC652" />
    <path
        d="M27.1562 13.1875V23.875C27.1562 25.2556 26.0369 26.375 24.6562 26.375H20.9062V23.875H24.6562V13.1875H20.9062V10.6875H24.6562C26.0369 10.6875 27.1562 11.8069 27.1562 13.1875Z"
        fill="#95E7EE" />
    <path
        d="M22.0906 5.10687C22.5662 7.21769 20.3889 8.9065 18.3437 7.86625V13.1431C18.3437 13.8331 17.7844 14.3931 17.0937 14.3931C16.4031 14.3931 15.8437 13.8331 15.8437 13.1431V10.6431C15.8437 9.78 15.875 8.1875 13.0937 8.1875C12.8681 8.1875 12.6525 8.27875 12.4962 8.44063C11.9281 9.02813 11.1319 9.39312 10.25 9.39312C9.39687 9.39312 8.62375 9.05125 8.06 8.49687C7.85812 8.29875 7.58625 8.1875 7.29 8.1875C7.05187 8.1875 6.83437 8.32312 6.73 8.53687C6.12625 9.77312 4.87187 10.6306 3.40625 10.6431V15.6294C3.375 16.3331 2.81562 16.8931 2.125 16.8931C1.43437 16.8931 0.84375 16.3331 0.84375 15.6431C0.84375 14.8252 0.84375 9.01056 0.84375 8.14312C0.84375 5.17 3.46937 2.80312 6.51625 3.19375C7.36937 1.67312 9.00187 0.625 10.875 0.625C12.3562 0.625 13.6869 1.28688 14.6025 2.31063C14.98 2.07188 15.4275 1.9375 15.9062 1.9375C16.9969 1.9375 17.9244 2.63563 18.2656 3.60938C18.8025 3.24937 19.4869 3.09188 20.2087 3.24688C21.1262 3.44313 21.885 4.19187 22.0906 5.10687Z"
        fill="#FFE5CB" />
    <path
        d="M15.875 28.2056C15.53 28.2056 15.25 28.4856 15.25 28.8306C15.25 29.1756 15.53 29.4556 15.875 29.4556C16.22 29.4556 16.5 29.1756 16.5 28.8306C16.5 28.4856 16.22 28.2056 15.875 28.2056Z"
        fill="black" />
    <path
        d="M7.09375 12.5181C6.74856 12.5181 6.46875 12.7979 6.46875 13.1431V25.0806C6.46875 25.4258 6.74856 25.7056 7.09375 25.7056C7.43894 25.7056 7.71875 25.4258 7.71875 25.0806V13.1431C7.71875 12.7979 7.43894 12.5181 7.09375 12.5181Z"
        fill="black" />
    <path
        d="M12.0938 12.5181C11.7486 12.5181 11.4688 12.7979 11.4688 13.1431V25.0806C11.4688 25.4258 11.7486 25.7056 12.0938 25.7056C12.4389 25.7056 12.7188 25.4258 12.7188 25.0806V13.1431C12.7188 12.7979 12.4389 12.5181 12.0938 12.5181Z"
        fill="black" />
    <path
        d="M5.90625 32H18.4062C20.1294 32 21.5312 30.5981 21.5312 28.875V27H24.6562C26.3794 27 27.7812 25.5981 27.7812 23.875V13.1875C27.7812 11.4644 26.3794 10.0625 24.6562 10.0625H21.5312V8.17131C22.5109 7.43687 22.9766 6.1955 22.7004 4.96981C22.4421 3.82044 21.4934 2.88244 20.3399 2.63575C19.7267 2.50419 19.1092 2.55075 18.5465 2.76469C17.9822 1.87513 16.9914 1.3125 15.9062 1.3125C15.4972 1.3125 15.0976 1.39181 14.728 1.54444C13.6819 0.557625 12.3027 0 10.875 0C8.9865 0 7.22525 0.962062 6.18563 2.53619C2.91875 2.35544 0.21875 4.94725 0.21875 8.14312V15.6431C0.21875 16.677 1.07387 17.5181 2.125 17.5181C2.35556 17.5181 2.5765 17.4762 2.78125 17.3998V28.875C2.78125 30.5981 4.18313 32 5.90625 32ZM18.4062 30.75H5.90625C5.0915 30.75 4.39675 30.2274 4.13875 29.5H13.3756C13.7208 29.5 14.0006 29.2202 14.0006 28.875C14.0006 28.5298 13.7208 28.25 13.3756 28.25H4.03125V15.6294V11.2191C5.43519 11.0072 6.65087 10.123 7.29 8.81256C7.42037 8.81256 7.53525 8.85769 7.62181 8.94263C8.32719 9.63625 9.26056 10.0182 10.25 10.0182C11.2755 10.0182 12.2328 9.61225 12.9459 8.87475C12.9841 8.83525 13.038 8.81256 13.0938 8.81256C14.0667 8.81256 14.7033 9.02038 14.9861 9.43013C15.2191 9.76794 15.2189 10.2373 15.2188 10.6145V13.1432C15.2188 13.9579 15.7413 14.6527 16.4688 14.9107V25.0807C16.4688 25.4259 16.7486 25.7057 17.0938 25.7057C17.4389 25.7057 17.7188 25.4259 17.7188 25.0807V14.9106C18.4462 14.6526 18.9688 13.9579 18.9688 13.1431V8.73913C19.4066 8.8265 19.8534 8.82706 20.2812 8.73956V28.25H18.3744C18.0292 28.25 17.7494 28.5298 17.7494 28.875C17.7494 29.2202 18.0292 29.4937 18.3744 29.4937H20.1737C19.9157 30.2212 19.221 30.75 18.4062 30.75ZM21.5312 13.8125H24.0312V23.25H21.5312V13.8125ZM24.6562 11.3125C25.6901 11.3125 26.5312 12.1536 26.5312 13.1875V23.875C26.5312 24.9089 25.6901 25.75 24.6562 25.75H21.5312V24.5H24.6562C25.0014 24.5 25.2812 24.2202 25.2812 23.875V13.1875C25.2812 12.8423 25.0014 12.5625 24.6562 12.5625H21.5312V11.3125H24.6562ZM2.125 16.2681C1.76931 16.2681 1.46875 15.9819 1.46875 15.6431V8.14312C1.46875 5.73087 3.44262 3.77737 5.86919 3.77737C6.05775 3.77737 6.24731 3.78938 6.43675 3.81369C6.68956 3.84613 6.93663 3.72175 7.06131 3.49956C7.83981 2.112 9.30113 1.25 10.875 1.25C12.1081 1.25 13.297 1.78844 14.1367 2.72731C14.3402 2.95494 14.6784 3.00219 14.9366 2.83888C15.2224 2.65806 15.5577 2.5625 15.9062 2.5625C16.7019 2.5625 17.413 3.06631 17.6758 3.81606C17.7397 3.99856 17.8846 4.14125 18.0681 4.20237C18.2516 4.2635 18.4531 4.23625 18.6137 4.1285C19.0397 3.84287 19.5596 3.74681 20.078 3.85806C20.753 4.00244 21.3299 4.57231 21.4809 5.24425C21.8366 6.82325 20.2181 8.1185 18.6271 7.30919C18.4333 7.21062 18.2023 7.21981 18.0169 7.3335C17.8316 7.44712 17.7187 7.64888 17.7187 7.86625V13.1431C17.7187 13.4877 17.4383 13.7681 17.0937 13.7681C16.7491 13.7681 16.4687 13.4877 16.4687 13.1431V10.6149C16.4689 10.1226 16.4692 9.37869 16.0149 8.72019C15.4849 7.952 14.5021 7.5625 13.0938 7.5625C12.7006 7.5625 12.319 7.72431 12.0469 8.00619C11.5718 8.49756 10.9336 8.76812 10.25 8.76812C9.59044 8.76812 8.96831 8.51356 8.49781 8.05081C8.177 7.73588 7.74806 7.5625 7.29 7.5625C6.81631 7.5625 6.37606 7.83731 6.16838 8.26262C5.6445 9.33537 4.584 10.0081 3.40088 10.0182C3.05781 10.0211 2.78119 10.3001 2.78119 10.6432V15.6135C2.75919 15.9816 2.473 16.2681 2.125 16.2681Z"
        fill="black" />
</svg>
